<mxfile host="app.diagrams.net" modified="2024-01-23T19:05:21.491Z" agent="Mozilla/5.0 (X11; Linux x86_64) AppleWebKit/537.36 (KHTML, like Gecko) Chrome/120.0.0.0 Safari/537.36" version="22.1.22" etag="UFT5Y62HrbvnjYAkUJnf" type="github">
  <diagram name="第 1 页" id="E6p_tNHF_ZDx3uiVLW9y">
    <mxGraphModel>
      <root>
        <mxCell id="0" />
        <mxCell id="1" parent="0" />
      </root>
    </mxGraphModel>
  </diagram>
</mxfile>
